<?xml version="1.0" encoding="utf-8"?>
<!-- Generator: Adobe Illustrator 24.0.0, SVG Export Plug-In . SVG Version: 6.00 Build 0)  -->
<svg version="1.1" id="Layer_1" xmlns:serif="http://www.serif.com/"
	 xmlns="http://www.w3.org/2000/svg" xmlns:xlink="http://www.w3.org/1999/xlink" x="0px" y="0px" viewBox="0 0 456 456"
	 style="enable-background:new 0 0 456 456;" xml:space="preserve">
<style type="text/css">
	.st0{fill:#191919;}
	.st1{enable-background:new    ;}
	.st2{fill:#0057FF;}
</style>
<g>
	<g>
		<path class="st0" d="M94,380.1h-9.7l-1.8,5h-3.1l8-22h3.3l8,22h-3.1L94,380.1z M93.2,377.8l-4-11.2l-4.1,11.2H93.2z"/>
		<path class="st0" d="M115.3,373.9c-1.3,1.2-3.2,1.8-5.8,1.8h-4.3v9.2h-2.9v-22.1h7.1c2.5,0,4.4,0.6,5.7,1.8c1.3,1.2,2,2.8,2,4.7
			C117.1,371.2,116.5,372.7,115.3,373.9z M113,372.4c0.8-0.7,1.1-1.7,1.1-3c0-2.7-1.6-4.1-4.7-4.1h-4.3v8.1h4.3
			C111.1,373.4,112.3,373,113,372.4z"/>
		<path class="st0" d="M133.6,373.9c-1.3,1.2-3.2,1.8-5.8,1.8h-4.3v9.2h-2.9v-22.1h7.1c2.5,0,4.4,0.6,5.7,1.8s2,2.8,2,4.7
			C135.5,371.2,134.9,372.7,133.6,373.9z M131.4,372.4c0.8-0.7,1.1-1.7,1.1-3c0-2.7-1.6-4.1-4.7-4.1h-4.3v8.1h4.3
			C129.4,373.4,130.6,373,131.4,372.4z"/>
		<path class="st0" d="M160.7,364.3c1.8,0.9,3.2,2.2,4.1,3.8c1,1.7,1.4,3.7,1.4,5.9c0,2.3-0.5,4.2-1.4,5.9c-1,1.7-2.3,2.9-4.1,3.8
			s-3.8,1.4-6.3,1.4h-6.9V363h6.9C156.9,362.9,159,363.4,160.7,364.3z M161,380.4c1.5-1.5,2.3-3.6,2.3-6.4s-0.8-4.9-2.3-6.5
			s-3.7-2.3-6.5-2.3h-4.1v17.4h4C157.3,382.6,159.5,381.9,161,380.4z"/>
		<path class="st0" d="M172.9,365.2v7.4h8.1v2.4h-8.1v7.6h9v2.4H170v-22.2h11.9v2.4L172.9,365.2L172.9,365.2z"/>
		<path class="st0" d="M189.4,384.5c-1.1-0.5-2-1.3-2.7-2.2c-0.7-0.9-1-2-1.1-3.2h3.1c0.1,1.1,0.5,1.9,1.3,2.6s1.9,1.1,3.3,1.1
			c1.4,0,2.5-0.4,3.2-1.1c0.8-0.7,1.2-1.6,1.2-2.6c0-0.8-0.2-1.5-0.7-2.1c-0.5-0.5-1.1-0.9-1.7-1.2c-0.7-0.3-1.7-0.6-2.9-0.9
			c-1.4-0.4-2.6-0.8-3.5-1.1c-0.9-0.4-1.7-1-2.3-1.8s-0.9-1.9-0.9-3.3c0-1.2,0.3-2.3,0.9-3.2c0.6-0.9,1.5-1.7,2.6-2.2
			s2.4-0.8,3.8-0.8c2.1,0,3.8,0.5,5.1,1.6c1.4,1.1,2.1,2.4,2.3,4.1h-3.2c-0.1-0.8-0.5-1.6-1.4-2.3c-0.8-0.7-1.8-1-3.1-1
			c-1.2,0-2.2,0.3-2.9,0.9c-0.8,0.6-1.1,1.5-1.1,2.6c0,0.8,0.2,1.4,0.7,2c0.5,0.5,1.1,0.9,1.7,1.1c0.7,0.3,1.6,0.6,2.8,0.9
			c1.4,0.4,2.6,0.8,3.5,1.2c0.9,0.4,1.7,1,2.3,1.8s1,2,1,3.3c0,1.1-0.3,2.1-0.8,3.1c-0.6,1-1.4,1.7-2.6,2.3c-1.1,0.6-2.5,0.9-4,0.9
			C191.8,385.3,190.6,385,189.4,384.5z"/>
		<path class="st0" d="M207.8,362.9V385h-2.9v-22.1H207.8z"/>
		<path class="st0" d="M229.6,369.3c-0.6-1.3-1.5-2.3-2.7-3s-2.6-1.1-4.1-1.1c-1.6,0-2.9,0.4-4.2,1.1s-2.2,1.7-2.9,3.1
			s-1.1,2.9-1.1,4.6s0.4,3.2,1.1,4.6c0.7,1.4,1.7,2.3,2.9,3c1.3,0.7,2.6,1.1,4.2,1.1c2.2,0,3.9-0.7,5.3-2s2.2-3,2.5-5.3h-8.9V373
			h11.9v2.3c-0.2,1.8-0.8,3.5-1.7,5s-2.3,2.7-3.8,3.6c-1.6,0.9-3.4,1.4-5.3,1.4c-2,0-3.9-0.5-5.6-1.4c-1.7-1-3-2.3-4.1-4.1
			c-1-1.7-1.5-3.7-1.5-5.8c0-2.2,0.5-4.1,1.5-5.9s2.3-3.1,4.1-4.1c1.7-1,3.6-1.4,5.6-1.4c2.3,0,4.4,0.6,6.2,1.7c1.8,1.2,3.2,2.8,4,5
			L229.6,369.3L229.6,369.3z"/>
		<path class="st0" d="M254.8,385h-2.9l-11.6-17.6V385h-2.9v-22.2h2.9l11.6,17.6v-17.6h2.9V385L254.8,385z"/>
		<path class="st0" d="M271.3,384.5c-1.1-0.5-2-1.3-2.7-2.2c-0.7-0.9-1-2-1.1-3.2h3.1c0.1,1.1,0.5,1.9,1.3,2.6s1.9,1.1,3.3,1.1
			s2.5-0.4,3.2-1.1c0.8-0.7,1.2-1.6,1.2-2.6c0-0.8-0.2-1.5-0.7-2.1c-0.5-0.5-1.1-0.9-1.7-1.2s-1.7-0.6-2.9-0.9
			c-1.4-0.4-2.6-0.8-3.5-1.1s-1.7-1-2.3-1.8s-0.9-1.9-0.9-3.3c0-1.2,0.3-2.3,0.9-3.2c0.6-0.9,1.5-1.7,2.6-2.2s2.4-0.8,3.8-0.8
			c2.1,0,3.8,0.5,5.1,1.6c1.4,1.1,2.1,2.4,2.3,4.1h-3.2c-0.1-0.8-0.5-1.6-1.4-2.3c-0.8-0.7-1.8-1-3.1-1c-1.2,0-2.2,0.3-2.9,0.9
			c-0.8,0.6-1.1,1.5-1.1,2.6c0,0.8,0.2,1.4,0.7,2c0.5,0.5,1.1,0.9,1.7,1.1c0.7,0.3,1.6,0.6,2.8,0.9c1.4,0.4,2.6,0.8,3.5,1.2
			s1.7,1,2.3,1.8s1,2,1,3.3c0,1.1-0.3,2.1-0.8,3.1c-0.6,1-1.4,1.7-2.6,2.3c-1.1,0.6-2.5,0.9-4,0.9
			C273.8,385.3,272.5,385,271.3,384.5z"/>
		<path class="st0" d="M300.5,362.9v2.3h-6V385h-2.9v-19.8h-6.1v-2.3L300.5,362.9L300.5,362.9z"/>
		<path class="st0" d="M306.9,362.9v14c0,2,0.5,3.5,1.4,4.4c1,1,2.3,1.4,4.1,1.4s3-0.5,4-1.4c1-1,1.4-2.4,1.4-4.4v-14h2.9v14
			c0,1.9-0.4,3.4-1.1,4.7s-1.7,2.2-3,2.8c-1.3,0.6-2.7,0.9-4.3,0.9c-1.6,0-3-0.3-4.3-0.9s-2.3-1.6-3-2.8c-0.8-1.3-1.1-2.8-1.1-4.7
			v-14H306.9z"/>
		<path class="st0" d="M338.7,364.3c1.8,0.9,3.2,2.2,4.1,3.8c1,1.7,1.4,3.7,1.4,5.9c0,2.3-0.5,4.2-1.4,5.9c-1,1.7-2.3,2.9-4.1,3.8
			c-1.8,0.9-3.8,1.4-6.3,1.4h-6.9V363h6.9C334.9,362.9,336.9,363.4,338.7,364.3z M339,380.4c1.5-1.5,2.3-3.6,2.3-6.4
			s-0.8-4.9-2.3-6.5s-3.7-2.3-6.5-2.3h-4v17.4h4C335.2,382.6,337.5,381.9,339,380.4z"/>
		<path class="st0" d="M350.8,362.9V385h-2.9v-22.1H350.8z"/>
		<path class="st0" d="M360.2,383.8c-1.7-1-3-2.3-4.1-4.1c-1-1.7-1.5-3.7-1.5-5.9s0.5-4.1,1.5-5.9s2.3-3.1,4.1-4.1
			c1.7-1,3.6-1.4,5.6-1.4c2.1,0,4,0.5,5.6,1.4c1.7,1,3,2.3,4,4.1s1.4,3.7,1.4,5.9s-0.5,4.1-1.4,5.9c-1,1.7-2.3,3.1-4,4.1
			s-3.6,1.4-5.6,1.4C363.7,385.3,361.9,384.7,360.2,383.8z M370,381.7c1.3-0.8,2.2-1.7,2.9-3.1c0.7-1.4,1.1-2.9,1.1-4.7
			c0-1.8-0.4-3.3-1.1-4.7c-0.7-1.4-1.7-2.3-2.9-3.1c-1.2-0.8-2.6-1.1-4.2-1.1s-3,0.4-4.2,1.1c-1.2,0.8-2.2,1.7-2.9,3.1
			c-0.7,1.4-1.1,2.9-1.1,4.7c0,1.7,0.4,3.3,1.1,4.7c0.7,1.4,1.7,2.3,2.9,3.1c1.3,0.8,2.6,1.1,4.2,1.1
			C367.3,382.7,368.8,382.4,370,381.7z"/>
	</g>
	<g class="st1">
		<path class="st2" d="M127.4,303.7V343h-9.6v-23.6L109,343h-7.7l-8.8-23.6V343h-9.6v-39.3h11.3l11,27.2l10.9-27.2H127.4z"/>
		<path class="st2" d="M158.4,319.4v8h-24.6v-8H158.4z"/>
		<path class="st2" d="M220.9,303.7L210.6,343H199l-6.3-25.9l-6.5,25.9h-11.6l-10-39.3h10.2l5.7,28.6l7-28.6H198l6.7,28.6l5.7-28.6
			H220.9z"/>
		<path class="st2" d="M250.1,336.1h-14.7L233,343h-10l14.2-39.3h11.1l14.2,39.3h-10.1L250.1,336.1z M247.7,328.7l-4.9-14.4
			l-4.8,14.4H247.7z"/>
		<path class="st2" d="M276.5,335.6H289v7.4h-22.1v-39.3h9.6V335.6z"/>
		<path class="st2" d="M303.2,335.6h12.5v7.4h-22.1v-39.3h9.6V335.6z"/>
		<path class="st2" d="M329.9,311.4v8h12.8v7.4h-12.8v8.6h14.5v7.7h-24.1v-39.3h24.1v7.7h-14.5V311.4z"/>
		<path class="st2" d="M378.9,303.7v7.7h-10.4V343h-9.6v-31.6h-10.4v-7.7L378.9,303.7L378.9,303.7z"/>
	</g>
	
		<image style="overflow:visible;enable-background:new    ;" width="403" height="429" xlink:href="../../../../MAUI-WALLET-UPLOAD/logo.png"  transform="matrix(0.5707 0 0 0.5707 113 45.0363)">
	</image>
</g>
</svg>
