<?xml version="1.0" encoding="utf-8"?>
<!-- Generator: Adobe Illustrator 24.0.0, SVG Export Plug-In . SVG Version: 6.00 Build 0)  -->
<svg version="1.1"
	 id="svg9587" inkscape:version="0.48.3.1 r9886" sodipodi:docname="New document 16" xmlns:cc="http://creativecommons.org/ns#" xmlns:dc="http://purl.org/dc/elements/1.1/" xmlns:inkscape="http://www.inkscape.org/namespaces/inkscape" xmlns:ns1="http://sozi.baierouge.fr" xmlns:rdf="http://www.w3.org/1999/02/22-rdf-syntax-ns#" xmlns:sodipodi="http://sodipodi.sourceforge.net/DTD/sodipodi-0.dtd"
	 xmlns="http://www.w3.org/2000/svg" xmlns:xlink="http://www.w3.org/1999/xlink" x="0px" y="0px" viewBox="0 0 919.5 660"
	 style="enable-background:new 0 0 919.5 660;" xml:space="preserve">
<style type="text/css">
	
		.st0{fill-rule:evenodd;clip-rule:evenodd;fill:#FFFFFF;fill-opacity:0.2146;stroke:#FFFFFF;stroke-opacity:0.6667;enable-background:new    ;}
</style>
<sodipodi:namedview  bordercolor="#666666" borderopacity="1.0" fit-margin-bottom="0" fit-margin-left="0" fit-margin-right="0" fit-margin-top="0" id="base" inkscape:current-layer="layer1" inkscape:cx="185.77995" inkscape:cy="222.19699" inkscape:document-units="px" inkscape:pageopacity="0.0" inkscape:pageshadow="2" inkscape:window-height="1124" inkscape:window-maximized="1" inkscape:window-width="1920" inkscape:window-x="0" inkscape:window-y="24" inkscape:zoom="0.8" pagecolor="#ffffff" showgrid="false">
	</sodipodi:namedview>
<path id="rect4878-9" inkscape:connector-curvature="0" class="st0" d="M6.1,175.2c-0.2,0.1-0.3,0.4-0.6,0.8
	c-0.3,0.7-2.8,6.7-5.9,14.5v66.3c12.5,8,29.5,14.7,53.4,21.1c10.8,2.9,45.9,9.7,62.9,12.2c30.9,4.5,68.1,8.6,116,12.6
	c21.6,1.8,47.5,3.8,131.5,9.9c104,7.6,159.7,12.5,219.4,19.5c149.3,17.5,257.2,43.4,336.3,80.7V396c-50.5-15.3-99.5-27.3-158.5-38.9
	c-50.6-10-85.9-15.8-138.4-23c-66.3-9.1-113.2-14-263-27.6c-83.5-7.5-116.6-11.1-160.3-17.2c-23.6-3.3-73.4-13.1-88.1-17.3
	c-42.1-12.2-66.9-25-83.9-43c-13.1-14-19.6-29.7-20.2-49.1c-0.1-3.1-0.2-4.5-0.5-4.7C6.2,175.2,6.1,175.2,6.1,175.2L6.1,175.2z
	 M-0.4,258.1v39.7c2.2,0.4,4.2,0.8,5.3,1c51.1,8.8,103.3,14.1,176.6,17.7c21.2,1,78.1,3,121.5,4.1c32.3,0.8,86.6,2.4,108.3,3.2
	c78.2,2.8,149.4,8.7,210.5,17.4c25.2,3.6,84.9,15.4,105.6,20.8c61.5,16.2,110.4,35,157.2,60.3c11.2,6,23,13.1,34.5,20.4v-28.8
	C868.9,390.1,807,371,729.6,355.6c-54.4-10.8-116.6-19.7-187.7-27.2c-50-5.2-92.7-8.7-215.7-17.7c-105.2-7.7-140.8-10.8-182.9-16.1
	C74.5,286.2,30.9,275.6,4.6,261C2.8,260,1.1,259-0.4,258.1L-0.4,258.1z M-0.4,298.5v46.1c18.9,1.4,39.3,2.3,60.5,2.9
	c50.1,1.3,96.9,0.4,183.8-3.5c108.2-4.9,123.8-5.6,147.1-6.3c97.7-3,167.9-0.6,231.9,8c26,3.5,67.4,11.7,89.8,17.9
	c83.2,23,150.2,60.2,206.4,114.7v-34.4c-63.4-40.7-136.9-69.6-223.9-88.3c-6.7-1.4-13.3-2.8-20-4.1c-64.4-12.7-130.1-20-221.6-24.8
	c-32.2-1.7-77.8-3.3-153.4-5.3c-125.6-3.3-183.8-6.7-244-14.1C34.2,304.5,18.5,302.1-0.4,298.5L-0.4,298.5z M461.9,337.2
	c-38.5,0.1-82.8,1.4-138.8,4c-153.1,7.1-172.6,7.7-228.2,7.6c-31.7-0.1-65.3-1.3-95.3-3.5V395c28.2,0.7,58.3-0.1,91.2-2.5
	c49.2-3.6,85.3-7.8,172.2-20.2c20.2-2.9,45.6-6.5,56.4-8c65.1-9.1,113.8-14.3,158.4-16.8c107.4-6.1,192.7,6,265.2,37.4
	c38.7,16.8,74.6,39.5,107.3,68c23.2,20.2,48.5,47.6,68.8,74.4v-47.5c-43.5-42.7-97.3-76.7-157.1-99.2
	c-30.4-11.5-62.4-20.4-97.1-27.2c-30.7-5.9-63.5-10.1-99.2-12.8C533.1,338.3,500.4,337.1,461.9,337.2L461.9,337.2z M524.2,346.9
	c-52.3,0.3-112.2,5.7-191.3,16.5c-10.5,1.4-33.8,4.7-51.8,7.3c-98.9,14.1-131,18-179.3,21.9c-37.4,3-71.1,4.1-102.2,3.3v43.8
	c21.6-1.8,44.4-4.3,71-7.8c46.5-6.2,91.2-13.9,173.4-30C360.7,379,391.9,373.3,436.7,367c119.4-16.9,203.7-12.7,274.5,13.5
	c28,10.4,56.9,26.4,79.6,44.3c46.5,36.4,84.5,87.6,114.5,154.3l4,8.8l4.1-8.8c1.3-2.8,3.7-7.9,5.8-12.4v-37.1
	c-20.3-27-46-55-69-75.3c-43.7-38.4-95.4-67.4-150.3-84.3c-19.5-6-22.8-6.8-48.6-11.9c-20.4-4-28.9-5.5-38.4-6.6
	C584.3,348.2,555.6,346.7,524.2,346.9L524.2,346.9z"/>
</svg>
